HIERARCHY
ROOT Hips
{
    OFFSET 0.000000 0.000000 0.000000
    CHANNELS 6 Xposition Yposition Zposition Zrotation Xrotation Yrotation
    JOINT Spine
    {
        OFFSET -0.000000 14.517291 0.000000
        CHANNELS 3 Zrotation Xrotation Yrotation
        JOINT Spine1
        {
            OFFSET -0.000000 37.558300 0.000000
            CHANNELS 3 Zrotation Xrotation Yrotation
            JOINT Neck
            {
                OFFSET -0.000000 37.404057 3.400369
                CHANNELS 3 Zrotation Xrotation Yrotation
                JOINT Head
                {
                    OFFSET -0.000000 24.785618 -3.540803
                    CHANNELS 3 Zrotation Xrotation Yrotation
                    End Site
                    {
                        OFFSET -0.000000 35.408028 0.000000
                    }
                }
            }
            JOINT LeftShoulder
            {
                OFFSET 6.992933 33.973492 -0.192664
                CHANNELS 3 Zrotation Xrotation Yrotation
                JOINT LeftArm
                {
                    OFFSET 21.527611 0.000000 0.000000
                    CHANNELS 3 Zrotation Xrotation Yrotation
                    JOINT LeftForeArm
                    {
                        OFFSET 56.353916 0.000000 0.000000
                        CHANNELS 3 Zrotation Xrotation Yrotation
                        JOINT LeftHand
                        {
                            OFFSET 47.774071 0.000000 0.000000
                            CHANNELS 3 Zrotation Xrotation Yrotation
                            End Site
                            {
                                OFFSET 26.556021 0.000000 0.000000
                            }
                        }
                    }
                }
            }
            JOINT RightShoulder
            {
                OFFSET -7.065357 33.973492 -0.192664
                CHANNELS 3 Zrotation Xrotation Yrotation
                JOINT RightArm
                {
                    OFFSET -21.527611 0.000000 0.000000
                    CHANNELS 3 Zrotation Xrotation Yrotation
                    JOINT RightForeArm
                    {
                        OFFSET -56.353916 0.000000 0.000000
                        CHANNELS 3 Zrotation Xrotation Yrotation
                        JOINT RightHand
                        {
                            OFFSET -47.774071 0.000000 0.000000
                            CHANNELS 3 Zrotation Xrotation Yrotation
                            End Site
                            {
                                OFFSET -26.556021 0.000000 0.000000
                            }
                        }
                    }
                }
            }
        }
    }
    JOINT LeftUpLeg
    {
        OFFSET 17.704014 0.000000 0.000000
        CHANNELS 3 Zrotation Xrotation Yrotation
        JOINT LeftLeg
        {
            OFFSET -0.000000 -81.181816 0.000000
            CHANNELS 3 Zrotation Xrotation Yrotation
            JOINT LeftFoot
            {
                OFFSET -0.000000 -62.821102 0.000000
                CHANNELS 3 Zrotation Xrotation Yrotation
                JOINT LeftToeBase
                {
                    OFFSET -0.000000 -11.507608 26.556021
                    CHANNELS 3 Zrotation Xrotation Yrotation
                    End Site
                    {
                        OFFSET -0.000000 0.000000 7.081605
                    }
                }
            }
        }
    }
    JOINT RightUpLeg
    {
        OFFSET -17.704014 0.000000 0.000000
        CHANNELS 3 Zrotation Xrotation Yrotation
        JOINT RightLeg
        {
            OFFSET -0.000000 -81.181816 0.000000
            CHANNELS 3 Zrotation Xrotation Yrotation
            JOINT RightFoot
            {
                OFFSET -0.000000 -62.821102 0.000000
                CHANNELS 3 Zrotation Xrotation Yrotation
                JOINT RightToeBase
                {
                    OFFSET -0.000000 -11.507608 26.556021
                    CHANNELS 3 Zrotation Xrotation Yrotation
                    End Site
                    {
                        OFFSET -0.000000 0.000000 7.081605
                    }
                }
            }
        }
    }
}
MOTION
Frames:    8
Frame Time:    0.008333
17.274019    157.629257    -77.997620    2.791418    -2.272082    -30.074837    4.474423    1.364981    2.146709    -0.052817    -0.107393    0.733639    17.216814    2.576151    15.203378    -19.962809    5.507368    11.797260    0.626825    9.953979    -14.246897    -34.606663    10.675364    -37.018520    32.701336    -44.739033    -44.326862    -18.773798    -29.346371    -33.185894    -6.222001    3.632271    -1.183984    33.804497    11.016890    78.457092    4.713396    -9.511642    85.445625    8.447421    -12.353521    19.592182    11.635024    -13.510783    -1.242938    -7.559572    5.384059    -9.886775    -11.637012    4.955612    40.232510    0.000000    0.000000    0.000000    -15.994434    3.723996    -6.604875    4.859326    20.338535    -2.291113    7.873727    -20.860624    -5.671611    0.000000    0.000000    0.000000    
17.276789    157.660202    -77.967545    2.681204    -2.281390    -30.184383    4.412190    1.343842    2.186993    -0.057144    -0.135012    0.746473    17.264656    2.679601    15.145329    -19.985823    5.401120    11.725404    0.652599    9.967947    -14.212657    -34.637836    10.674541    -37.053307    32.616432    -44.685970    -44.394024    -18.761692    -29.303190    -33.149403    -6.197804    3.638968    -1.228778    33.802818    11.011399    78.471901    4.771088    -9.447990    85.458382    8.468438    -12.338969    19.608019    11.739855    -13.410256    -1.180237    -7.550573    5.402677    -9.856907    -11.651287    4.868994    40.217926    0.000000    0.000000    0.000000    -15.897216    3.866947    -6.445471    4.859378    20.078928    -2.322859    7.848006    -20.733393    -5.677025    0.000000    0.000000    0.000000    
17.281570    157.689667    -77.936020    2.573684    -2.299301    -30.299440    4.376621    1.316860    2.207071    -0.085991    -0.158622    0.752581    17.262293    2.682123    15.147657    -19.856298    5.468294    11.752634    0.640576    9.953009    -14.167829    -34.631886    10.708382    -37.030796    32.563698    -44.627605    -44.412464    -18.756680    -29.248940    -33.144138    -6.222271    3.613884    -1.182447    33.856438    11.040717    78.432228    4.790373    -9.407906    85.439178    8.474958    -12.310493    19.656391    11.838779    -13.302338    -1.117181    -7.539031    5.428628    -9.862797    -11.681315    4.769056    40.228992    0.000000    0.000000    0.000000    -15.810344    4.009956    -6.243694    4.882177    19.823341    -2.400271    7.803964    -20.610008    -5.697844    0.000000    0.000000    0.000000    
17.289669    157.716904    -77.911774    2.481201    -2.303339    -30.406170    4.320479    1.285808    2.239929    -0.082980    -0.213136    0.762924    17.171436    2.514640    15.188741    -19.482037    5.786411    11.871384    0.629347    9.987050    -14.144648    -34.609501    10.734926    -37.039181    32.546734    -44.588921    -44.382507    -18.802868    -29.199196    -33.180027    -6.224517    3.701883    -1.157920    33.830345    11.003641    78.456146    4.785028    -9.406851    85.439987    8.401980    -12.321803    19.591368    11.930647    -13.217082    -1.057999    -7.526897    5.447258    -9.843660    -11.689262    4.699363    40.204933    0.000000    0.000000    0.000000    -15.734415    4.137915    -6.077593    4.899577    19.569235    -2.424475    7.780730    -20.504139    -5.719656    0.000000    0.000000    0.000000    
17.291111    157.746185    -77.881096    2.389955    -2.314516    -30.508570    4.257501    1.244822    2.272312    -0.095796    -0.238372    0.772855    17.152201    2.502616    15.172918    -19.296566    5.872618    11.887050    0.631589    9.978705    -14.118266    -34.558456    10.840855    -37.038044    32.640137    -44.554665    -44.271149    -18.874718    -29.125694    -33.238625    -6.222595    3.668346    -1.136868    33.867966    11.031648    78.408127    4.842143    -9.337370    85.439781    8.350297    -12.313757    19.586040    12.015735    -13.120846    -0.989272    -7.512599    5.465251    -9.832287    -11.723687    4.606547    40.195370    0.000000    0.000000    0.000000    -15.656726    4.277924    -5.949346    4.900687    19.314157    -2.429031    7.711908    -20.392683    -5.737095    0.000000    0.000000    0.000000    
17.283081    157.774094    -77.852463    2.296973    -2.327762    -30.606318    4.172899    1.200119    2.310549    -0.079128    -0.247055    0.784705    17.188433    2.607907    15.112321    -19.312309    5.758976    11.814314    0.652770    9.956324    -14.115742    -34.600868    10.832184    -37.016331    32.605030    -44.431839    -44.285187    -18.899620    -28.971704    -33.278080    -6.212764    3.656147    -1.147736    33.892586    11.063940    78.384201    4.881953    -9.291666    85.450401    8.330883    -12.310735    19.559731    12.110657    -13.022307    -0.934527    -7.511181    5.481327    -9.846014    -11.759639    4.515293    40.204044    0.000000    0.000000    0.000000    -15.572769    4.416754    -5.823777    4.886030    19.076143    -2.418519    7.665177    -20.294374    -5.752127    0.000000    0.000000    0.000000    
17.284384    157.804626    -77.829430    2.210166    -2.329148    -30.702507    4.107923    1.148932    2.343477    -0.065253    -0.272637    0.794772    17.180878    2.506396    15.151941    -19.073927    5.996160    11.902864    0.627068    9.947111    -14.105053    -34.553391    10.898422    -36.992252    32.705986    -44.340153    -44.172688    -18.963131    -28.825806    -33.346863    -6.198108    3.722000    -1.127755    33.848869    11.045811    78.413574    4.879116    -9.311578    85.426819    8.309487    -12.327871    19.586908    12.199204    -12.940205    -0.877036    -7.506703    5.494397    -9.828765    -11.769403    4.446456    40.196651    0.000000    0.000000    0.000000    -15.495002    4.531081    -5.693032    4.885727    18.858648    -2.404488    7.626174    -20.197306    -5.790154    0.000000    0.000000    0.000000    
17.286289    157.836823    -77.809296    2.122393    -2.331800    -30.792665    4.032786    1.118123    2.354100    -0.037501    -0.299989    0.797706    17.199205    2.625898    15.114933    -19.083015    5.860610    11.856658    0.623201    9.926058    -14.033508    -34.591991    10.877781    -37.000721    32.689362    -44.170242    -44.184059    -18.943354    -28.624250    -33.359428    -6.227175    3.674756    -1.120914    33.897713    11.088983    78.403389    4.921768    -9.231020    85.393906    8.282722    -12.289041    19.582369    12.287821    -12.861317    -0.824828    -7.498019    5.514380    -9.848406    -11.827749    4.349015    40.228184    0.000000    0.000000    0.000000    -15.414911    4.648147    -5.525876    4.896368    18.634048    -2.451992    7.599301    -20.089493    -5.808974    0.000000    0.000000    0.000000    
